<?xml version="1.0" encoding="UTF-8"?>
<svg width="96px" height="96px" viewBox="0 0 96 96" version="1.1" xmlns="http://www.w3.org/2000/svg" xmlns:xlink="http://www.w3.org/1999/xlink">
    <!-- Generator: Sketch 52.3 (67297) - http://www.bohemiancoding.com/sketch -->
    <title>Logos/Primary/chemical-guys-logo</title>
    <desc>Created with Sketch.</desc>
    <g id="Style-Guide" stroke="none" stroke-width="1" fill="none" fill-rule="evenodd">
        <g id="09.-Icons" transform="translate(-100.000000, -294.000000)">
            <g id="Logos" transform="translate(86.000000, 240.000000)">
                <g id="Logos/Primary/chemical-guys-logo" transform="translate(14.000000, 54.000000)">
                    <g id="Logo-Art-–-Update-2018-11-08">
                        <g>
                            <path d="M0,47.9710253 C0,74.4647317 21.4773515,95.9420833 47.971058,95.9420833 C74.4647645,95.9420833 95.9420068,74.4647317 95.9420068,47.9710253 C95.9420068,21.477428 74.4647645,7.6450512e-05 47.971058,7.6450512e-05 C21.4773515,7.6450512e-05 0,21.477428 0,47.9710253" id="Fill-1" fill="#000000"></path>
                            <path d="M1.15363823,47.9710253 C1.15363823,73.8275713 22.1145119,94.7884451 47.971058,94.7884451 C73.8276041,94.7884451 94.7884778,73.8275713 94.7884778,47.9710253 C94.7884778,22.1145884 73.8276041,1.15371468 47.971058,1.15371468 C22.1145119,1.15371468 1.15363823,22.1145884 1.15363823,47.9710253" id="Fill-3" fill="#FFFFFF"></path>
                            <path d="M2.33415427,47.9710253 C2.33415427,73.1755577 22.7664273,93.6079399 47.9710689,93.6079399 C73.1756014,93.6079399 93.6078744,73.1755577 93.6078744,47.9710253 C93.6078744,22.766602 73.1756014,2.3342198 47.9710689,2.3342198 C22.7664273,2.3342198 2.33415427,22.766602 2.33415427,47.9710253" id="Fill-5" fill="#000000"></path>
                            <path d="M82.3660997,66.7263563 C81.5934034,65.0101515 79.8787276,64.4554485 78.921458,64.2795031 C77.6535809,64.0462198 76.3171167,64.1256191 75.0247754,64.2027249 C74.6503863,64.2248956 74.2631099,64.2479399 73.882714,64.2630116 C71.9112737,64.3418648 69.655656,64.337387 67.8332942,63.2844451 C67.7829461,63.2555031 67.7327072,63.2251413 67.6825775,63.1937966 C66.5561338,62.4885952 66.2398471,60.9898375 66.9474512,59.8649229 C69.1023727,56.4390662 70.3558334,52.3917761 70.3724341,48.0581242 C70.4195058,35.720213 60.3656082,25.6001311 48.0274785,25.5695509 C35.6493761,25.5389706 25.5694853,35.5999672 25.5694853,47.9710799 C25.5694853,52.3585747 26.8380177,56.4550116 29.0269051,59.9141788 C29.7556969,61.0659604 29.4146184,62.6058922 28.2380451,63.2939468 C28.2309461,63.2982061 28.2237379,63.3023563 28.2165297,63.3065065 C26.3808437,64.3668751 24.1088437,64.3714621 22.1230962,64.292172 C21.73997,64.2768819 21.3499631,64.2536191 20.9728437,64.23123 C19.6710007,64.1536874 18.3249256,64.073742 17.0478744,64.3085543 C16.083615,64.4859195 14.2538266,65.2626567 13.5782225,66.7733188 C12.9026184,68.2839809 12.9854034,70.1138785 12.9854034,70.1138785 C12.4158471,69.2153666 11.8808027,68.2950116 11.382127,67.3554348 C10.8161747,66.2886225 10.2969666,65.1970184 9.82657747,64.0847727 C7.66794266,58.9813734 6.57349898,53.5598307 6.57349898,47.9709706 C6.57349898,42.3822198 7.66794266,36.9607863 9.82657747,31.857387 C11.9116014,26.9279672 14.896557,22.5007181 18.6985502,18.6986157 C22.5006526,14.8966225 26.9280109,11.9116669 31.8574307,9.82653379 C36.96083,7.66800819 42.3821543,6.57356451 47.9710143,6.57356451 C53.5598744,6.57356451 58.9814171,7.66800819 64.0847072,9.82653379 C69.0142362,11.9116669 73.4414853,14.8966225 77.2435877,18.6986157 C81.0454717,22.5007181 84.0305365,26.9279672 86.1155604,31.857387 C88.2741952,36.9607863 89.3685297,42.3822198 89.3685297,47.9709706 C89.3685297,53.5598307 88.2741952,58.9813734 86.1155604,64.0847727 C85.3395877,65.9194758 84.4374717,67.6838444 83.4159836,69.3727454 C83.2919154,69.5779604 82.976284,69.505114 82.9561884,69.2661515 C82.8991782,68.584759 82.7506457,67.5803085 82.3660997,66.7263563 M48.2728846,69.6060287 C36.1036014,69.7728 26.169185,59.8382744 26.3360655,47.6688819 C26.4961747,35.9984928 35.9990826,26.4959126 47.6694717,26.3361311 C59.8385365,26.1694689 69.7727345,36.1037761 69.6059631,48.2730594 C69.4459631,59.9434485 59.9432737,69.4461379 48.2728846,69.6060287 M87.0275058,31.4717488 C84.8925706,26.4241584 81.8362976,21.8911891 77.943656,17.9985474 C74.0509051,14.1057966 69.5178266,11.0496328 64.4704546,8.9145884 C59.2442976,6.70429488 53.6931167,5.58342116 47.9710143,5.58342116 C42.2490212,5.58342116 36.6978403,6.70429488 31.4717925,8.9145884 C26.424202,11.0496328 21.8911235,14.1057966 17.9984819,17.9985474 C14.1058403,21.8911891 11.0495672,26.4241584 8.91463208,31.4717488 C6.70412014,36.6977966 5.58335563,42.2489775 5.58335563,47.9709706 C5.58335563,53.6931823 6.70412014,59.2443631 8.91463208,64.4704109 C11.0495672,69.5180014 14.1058403,74.0509706 17.9984819,77.9437215 C21.8911235,81.8363631 26.424202,84.892527 31.4717925,87.0274621 C36.6978403,89.2379741 42.2490212,90.3587386 47.9710143,90.3587386 C53.6931167,90.3587386 59.2442976,89.2379741 64.4704546,87.0274621 C69.5178266,84.892527 74.0509051,81.8363631 77.943656,77.9437215 C81.8362976,74.0509706 84.8925706,69.5180014 87.0275058,64.4704109 C89.2379085,59.2443631 90.358673,53.6931823 90.358673,47.9709706 C90.358673,42.2489775 89.2379085,36.6977966 87.0275058,31.4717488" id="Fill-7" fill="#FFFFFF"></path>
                            <path d="M31.9402157,73.3731167 L32.9775399,71.8449802 C33.2025229,71.5136218 33.1612396,71.2971577 32.7929666,71.0472737 L32.0381816,70.5349461 C31.6699085,70.2848437 31.4535536,70.3262362 31.2285706,70.6575945 L26.354086,77.8377174 C26.1164341,78.1875331 26.1703863,78.3854307 26.5386594,78.6355331 L27.2934444,79.14797 C27.6616082,79.3978539 27.8655126,79.3749188 28.1029461,79.0251031 L29.6529256,76.7422908 L28.7323522,76.117144 L29.9197379,74.3681747 L33.4729392,76.7806253 L30.5731713,81.0519154 C29.7232601,82.3037379 28.5355468,82.6270143 26.8785365,81.5020997 L24.503656,79.8898676 C22.8282976,78.752284 22.7088164,77.5416355 23.5587276,76.2897038 L28.7583454,68.6308915 C29.6082567,67.3789597 30.7776218,67.0432328 32.4529802,68.1807072 L34.82797,69.7930485 C36.484871,70.9180724 36.6228096,72.1411713 35.7727891,73.3931031 L34.5728437,75.1605297 L31.9402157,73.3731167 Z" id="Fill-9" fill="#000000"></path>
                            <path d="M47.2023809,73.6643932 L44.997002,85.1369939 C44.7071454,86.6448164 43.7439782,87.4115058 41.7553911,87.0292532 L38.8271181,86.466359 C36.8385311,86.0841065 36.2501898,85.0191509 36.5400464,83.5113283 L38.7454253,72.0387276 L41.8703945,72.639301 L39.7447427,83.6968846 C39.6691659,84.0901679 39.7926881,84.272557 40.2079235,84.3521747 L41.2568246,84.5540041 C41.6939031,84.6380997 41.8761829,84.5144683 41.9518689,84.121185 L44.0775208,73.0637106 L47.2023809,73.6643932 Z" id="Fill-11" fill="#000000"></path>
                            <polygon id="Fill-13" fill="#000000" points="56.849671 81.757499 57.8117461 86.2166389 54.7011932 86.8878744 53.7344218 82.4067823 48.2362102 73.804243 51.4119645 73.119028 54.6640601 79.2240382 54.9792546 72.3493898 58.1550089 71.664284"></polygon>
                            <path d="M67.7776819,75.657884 C67.5641666,75.3188805 67.3612451,75.2889556 66.9846717,75.5261706 L65.3278799,76.5700478 C63.6710881,77.6138157 62.5843986,77.1414608 61.7777365,75.8611331 L60.0578184,73.1311945 C59.2512655,71.8510853 59.4119208,70.6451331 61.125286,69.5656519 L63.4220778,68.1184437 C65.135443,67.0389625 66.2924669,67.4145529 67.099129,68.6947713 L68.0838116,70.2576382 L65.391443,71.9536382 L64.6441939,70.7676724 C64.4306785,70.4285597 64.2157433,70.379959 63.83917,70.6172833 L63.19917,71.0205051 C62.8225966,71.2578294 62.7737775,71.4725461 62.987402,71.8114403 L64.3158935,73.9201638 C64.5292997,74.259058 64.7323304,74.2889829 65.1089038,74.0516587 L66.7281256,73.0315904 C68.4037024,71.9759181 69.4735727,72.3800137 70.2802348,73.6602321 L72.0596751,76.4844232 C72.8780232,77.7834266 72.7173679,78.9893788 71.0040027,80.0687509 L68.7259959,81.504273 C67.0126307,82.5836451 65.8367126,82.219959 65.0181461,80.9207372 L64.0454771,79.3769829 L66.7378457,77.6806553 L67.4849857,78.8668396 C67.6986102,79.2056246 67.9134362,79.2545529 68.2900096,79.0173379 L68.930228,78.6140068 C69.3066922,78.3766826 69.3552928,78.1618567 69.1418867,77.8229625 L67.7776819,75.657884 Z" id="Fill-15" fill="#000000"></path>
                            <polygon id="Fill-17" fill="#FFFFFF" points="46.0144491 59.9518253 46.7922785 59.9518253 46.7922785 60.4405625 45.3302171 60.4405625 45.3302171 57.9305829 46.0144491 57.9305829"></polygon>
                            <path d="M47.9807454,59.8659713 L47.9807454,58.5052614 C47.9807454,58.4480328 47.9480901,58.4193092 47.882998,58.4193092 L47.718957,58.4193092 C47.6536464,58.4193092 47.6211003,58.4480328 47.6211003,58.5052614 L47.6211003,59.8659713 C47.6211003,59.9232 47.6536464,59.9518143 47.718957,59.9518143 L47.882998,59.9518143 C47.9480901,59.9518143 47.9807454,59.9232 47.9807454,59.8659713 M47.5116669,57.930572 L48.0901788,57.930572 C48.4734143,57.930572 48.6649775,58.0923195 48.6649775,58.4154867 L48.6649775,59.9556369 C48.6649775,60.2788041 48.4734143,60.4405515 48.0901788,60.4405515 L47.5116669,60.4405515 C47.1285406,60.4405515 46.9368683,60.2788041 46.9368683,59.9556369 L46.9368683,58.4154867 C46.9368683,58.0923195 47.1285406,57.930572 47.5116669,57.930572" id="Fill-19" fill="#FFFFFF"></path>
                            <path d="M49.9276341,59.8659713 L49.9276341,59.5099304 C49.9276341,59.4527017 49.8949788,59.4239782 49.8297775,59.4239782 L49.4545147,59.4239782 C49.2615317,59.4239782 49.1254498,59.3817119 49.0460505,59.2970703 C48.966542,59.2125379 48.9266785,59.0905447 48.9266785,58.9315276 L48.9266785,58.4154867 C48.9266785,58.0923195 49.1170403,57.930572 49.4975454,57.930572 L50.0331358,57.930572 C50.413641,57.930572 50.6037843,58.0923195 50.6037843,58.4154867 L50.6037843,58.7164833 L49.9198799,58.7164833 L49.9198799,58.5052614 C49.9198799,58.4480328 49.8872246,58.4193092 49.8220232,58.4193092 L49.7085488,58.4193092 C49.6434567,58.4193092 49.6110198,58.4480328 49.6110198,58.5052614 L49.6110198,58.8768109 C49.6110198,58.9341488 49.6434567,58.9626539 49.7085488,58.9626539 L50.0761666,58.9626539 C50.2690403,58.9626539 50.4064328,59.0031727 50.4885625,59.0839918 C50.5706922,59.1647017 50.6118662,59.2834184 50.6118662,59.4395959 L50.6118662,59.9556369 C50.6118662,60.2788041 50.4213952,60.4405515 50.0408901,60.4405515 L49.5093406,60.4405515 C49.1262143,60.4405515 48.934542,60.2788041 48.934542,59.9556369 L48.934542,59.6546403 L49.6187741,59.6546403 L49.6187741,59.8659713 C49.6187741,59.9232 49.6513201,59.9518143 49.7165215,59.9518143 L49.8297775,59.9518143 C49.8949788,59.9518143 49.9276341,59.9232 49.9276341,59.8659713" id="Fill-21" fill="#FFFFFF"></path>
                            <path d="M40.3848082,63.1796423 L40.9060915,63.1796423 L40.6506375,61.9751099 L40.3848082,63.1796423 Z M41.15117,64.3266184 L41.0469788,63.8258676 L40.2439208,63.8258676 L40.1344874,64.3266184 L39.2377229,64.3266184 L40.0980096,60.9791782 L41.2086171,60.9791782 L42.0689038,64.3266184 L41.15117,64.3266184 Z" id="Fill-23" fill="#FFFFFF"></path>
                            <polygon id="Fill-25" fill="#FFFFFF" points="43.8052478 60.9791235 44.6395413 60.9791235 44.6395413 64.3265638 43.8574526 64.3265638 43.1117324 62.5695126 43.1117324 64.3265638 42.2775481 64.3265638 42.2775481 60.9791235 43.0595276 60.9791235 43.8052478 62.7676287"></polygon>
                            <path d="M47.3038089,62.1260997 L46.3913174,62.1260997 L46.3913174,61.6937174 C46.3913174,61.6169392 46.3478498,61.578714 46.2610239,61.578714 L46.0732833,61.578714 C45.9864573,61.578714 45.9429898,61.6169392 45.9429898,61.6937174 L45.9429898,63.6124068 C45.9429898,63.6888573 45.9864573,63.7269734 46.0732833,63.7269734 L46.2610239,63.7269734 C46.3478498,63.7269734 46.3913174,63.6888573 46.3913174,63.6124068 L46.3913174,63.0545365 L46.1307304,63.0545365 L46.1307304,62.4756969 L47.3038089,62.4756969 L47.3038089,63.6800109 C47.3038089,64.1110826 47.0483549,64.3265638 46.5374471,64.3265638 L45.7970785,64.3265638 C45.2859522,64.3265638 45.0304983,64.1110826 45.0304983,63.6800109 L45.0304983,61.6257857 C45.0304983,61.194714 45.2859522,60.9791235 45.7970785,60.9791235 L46.5374471,60.9791235 C47.0483549,60.9791235 47.3038089,61.194714 47.3038089,61.6257857 L47.3038089,62.1260997 Z" id="Fill-27" fill="#FFFFFF"></path>
                            <polygon id="Fill-29" fill="#FFFFFF" points="48.5812205 63.6748451 49.7230635 63.6748451 49.7230635 64.3266403 47.668729 64.3266403 47.668729 60.9790908 49.676101 60.9790908 49.676101 61.630886 48.5812205 61.630886 48.5812205 62.3140259 49.5249474 62.3140259 49.5249474 62.9658212 48.5812205 62.9658212"></polygon>
                            <polygon id="Fill-31" fill="#FFFFFF" points="50.9221898 63.6748451 51.9596232 63.6748451 51.9596232 64.3266403 50.0096983 64.3266403 50.0096983 60.9790908 50.9221898 60.9790908"></polygon>
                            <polygon id="Fill-33" fill="#FFFFFF" points="53.0806826 63.6748451 54.2225256 63.6748451 54.2225256 64.3266403 52.1683003 64.3266403 52.1683003 60.9790908 54.1756724 60.9790908 54.1756724 61.630886 53.0806826 61.630886 53.0806826 62.3140259 54.0244096 62.3140259 54.0244096 62.9658212 53.0806826 62.9658212"></polygon>
                            <path d="M55.791858,63.5602894 L55.791858,63.0854225 C55.791858,63.0090812 55.7484997,62.9709652 55.6614553,62.9709652 L55.1609229,62.9709652 C54.9036123,62.9709652 54.7219877,62.914501 54.6160491,62.8016819 C54.5101106,62.6887536 54.4569229,62.5262416 54.4569229,62.3140369 L54.4569229,61.6257638 C54.4569229,61.1946922 54.7107386,60.9791017 55.2182608,60.9791017 L55.932527,60.9791017 C56.4400491,60.9791017 56.6938648,61.1946922 56.6938648,61.6257638 L56.6938648,62.0272382 L55.7814826,62.0272382 L55.7814826,61.7454635 C55.7814826,61.6691222 55.738015,61.6308969 55.6510799,61.6308969 L55.4997078,61.6308969 C55.4129911,61.6308969 55.3695235,61.6691222 55.3695235,61.7454635 L55.3695235,62.2410812 C55.3695235,62.3174225 55.4129911,62.3556478 55.4997078,62.3556478 L55.9899741,62.3556478 C56.2471754,62.3556478 56.4305474,62.4094908 56.5399809,62.517286 C56.6495235,62.6250812 56.7043495,62.7833338 56.7043495,62.991716 L56.7043495,63.6799891 C56.7043495,64.1110608 56.4504246,64.3266512 55.9430116,64.3266512 L55.2339877,64.3266512 C54.7230799,64.3266512 54.4674075,64.1110608 54.4674075,63.6799891 L54.4674075,63.2785147 L55.379899,63.2785147 L55.379899,63.5602894 C55.379899,63.6366307 55.4233666,63.674856 55.5104109,63.674856 L55.6614553,63.674856 C55.7484997,63.674856 55.791858,63.6366307 55.791858,63.5602894" id="Fill-35" fill="#FFFFFF"></path>
                            <path d="M47.6949625,36.494056 L47.9086962,36.494056 C48.0069898,36.494056 48.0753584,36.4776737 48.1145666,36.4481857 C48.1477679,36.4193529 48.1674266,36.3789433 48.1674266,36.3281584 C48.1674266,36.2971413 48.1587986,36.270056 48.1397952,36.2434075 C48.1272355,36.2181788 48.1022253,36.200486 48.0676041,36.1865065 C48.0377884,36.1758034 47.9780478,36.1706703 47.8930785,36.1706703 L47.6949625,36.1706703 L47.6949625,36.494056 Z M47.5212014,37.0993256 L47.5212014,36.02323 L47.8914403,36.02323 C48.0219522,36.02323 48.1108532,36.0312027 48.1674266,36.0523904 C48.2256382,36.0704109 48.2704164,36.1065611 48.3033993,36.1564724 C48.3364915,36.204527 48.3536382,36.2590253 48.3536382,36.3141788 C48.3536382,36.3925952 48.324587,36.461073 48.2704164,36.5212505 C48.2137338,36.5782608 48.136628,36.6097147 48.0454334,36.6179058 C48.0839863,36.6331959 48.1145666,36.6513256 48.135099,36.67437 C48.1792218,36.7172915 48.2309898,36.7884997 48.2993584,36.8894143 L48.427686,37.0993256 L48.2152628,37.0993256 L48.1226485,36.9302608 C48.0454334,36.7970184 47.9826348,36.7118307 47.9372014,36.6780833 C47.9056382,36.6544928 47.8616246,36.6434621 47.7956587,36.6434621 L47.6949625,36.6434621 L47.6949625,37.0993256 L47.5212014,37.0993256 Z M47.9621024,35.7108751 C47.8191399,35.7108751 47.6846962,35.7465884 47.5503618,35.8188887 C47.4182116,35.8910799 47.312273,35.9934143 47.2383345,36.1286225 C47.1636314,36.2635031 47.1244232,36.4006771 47.1244232,36.54637 C47.1244232,36.6902061 47.1636314,36.8281447 47.23757,36.9609502 C47.3083413,37.0945201 47.4136246,37.1991481 47.5465392,37.270684 C47.6792355,37.3445133 47.8183754,37.3794621 47.9621024,37.3794621 C48.109215,37.3794621 48.2428942,37.3445133 48.3787577,37.270684 C48.5109078,37.1991481 48.6131331,37.0945201 48.6883823,36.9609502 C48.7623208,36.8281447 48.7945392,36.6902061 48.7945392,36.54637 C48.7945392,36.4006771 48.7599181,36.2635031 48.6846689,36.1286225 C48.6083276,35.9934143 48.5061024,35.8910799 48.3717679,35.8188887 C48.2404915,35.7465884 48.1036451,35.7108751 47.9621024,35.7108751 Z M47.9621024,35.5443222 C48.132041,35.5443222 48.2956451,35.587899 48.4558635,35.6739604 C48.6131331,35.7591481 48.7418976,35.8822334 48.8299249,36.0440901 C48.9195904,36.204527 48.9628396,36.3745747 48.9628396,36.54637 C48.9628396,36.7172915 48.9195904,36.8854826 48.8314539,37.0450457 C48.7443003,37.2022061 48.6184846,37.3257283 48.4604505,37.4156123 C48.3011058,37.5017829 48.135099,37.5477625 47.9621024,37.5477625 C47.787686,37.5477625 47.6226621,37.5017829 47.4639727,37.4156123 C47.3051741,37.3257283 47.1807782,37.2022061 47.0928601,37.0450457 C47.0041775,36.8854826 46.9568874,36.7172915 46.9568874,36.54637 C46.9568874,36.3745747 47.0041775,36.204527 47.0928601,36.0440901 C47.1856928,35.8822334 47.3083413,35.7591481 47.4718362,35.6739604 C47.6306348,35.587899 47.7948942,35.5443222 47.9621024,35.5443222 Z" id="Fill-37" fill="#FFFFFF"></path>
                            <path d="M38.6469679,51.4082075 C38.33363,51.4707877 37.9817392,51.499402 37.6619577,51.4266648 C37.3718826,51.3604805 37.0979713,51.2721256 36.8037461,51.234228 C36.7365788,51.2256 36.6760737,51.2792246 36.6732341,51.3468287 L36.6444014,52.0453679 C36.6418894,52.1051085 36.6857939,52.1548014 36.7450976,52.1626648 C38.0703126,52.3387195 39.157985,53.3935181 39.3248655,54.7805488 C39.5150089,56.3776 38.4109543,57.8314703 36.8396778,58.0931495 C36.7624628,58.1060369 36.7072,58.173641 36.7148451,58.2515113 L36.8069133,59.1957843 C36.8146676,59.2746375 36.8831454,59.3335044 36.9623263,59.3293543 L38.6945857,59.2376137 C38.775514,59.2333543 38.8380942,59.1647672 38.8347085,59.0837297 L38.8018348,58.2760846 C38.7999782,58.2308696 38.8197461,58.1879481 38.8545857,58.1590061 C39.8090157,57.365559 40.3726744,56.1377638 40.2594184,54.8165898 C40.2594184,54.8165898 40.1918143,54.347402 40.5982034,53.8830198 L40.753944,53.7084942 C40.8945038,53.5394294 41.0816983,53.3532177 41.3229543,53.1580505 C41.4217939,53.0763577 41.59763,52.9888765 41.6057119,52.8473338 C41.6176164,52.6414635 41.4686471,52.4102553 41.3437051,52.2572451 C41.1210157,51.9846444 40.9025857,51.7056 40.7378894,51.3930266 C40.6569611,51.2394703 40.6034457,51.0792519 40.5386812,50.9193611 C40.4908451,50.8011904 40.4159235,50.6108287 40.263241,50.6061324 C40.1059713,50.601327 39.9475003,50.652658 39.822886,50.7487672 C39.6545857,50.8784055 39.5178485,51.0464874 39.3410294,51.1653133 C39.1411659,51.2996478 38.8800328,51.3616819 38.6469679,51.4082075" id="Fill-39" fill="#FFFFFF"></path>
                            <path d="M33.3731823,55.4887317 C33.178998,53.8885133 34.2898239,52.4330048 35.8651413,52.1774416 C35.9368956,52.1657556 35.9877898,52.1021925 35.9791618,52.0300014 L35.9011823,51.3763495 C35.8920082,51.299899 35.8201447,51.2438717 35.7441311,51.2555577 C33.6631481,51.5774143 32.1968273,53.4929365 32.4498785,55.5987113 C32.5908751,56.7658922 33.2261788,57.7570184 34.1248,58.3739741 C34.1593119,58.3976737 34.1808273,58.4353529 34.1824655,58.4771823 L34.2158853,59.3012096 C34.2189433,59.3760218 34.2821788,59.4341242 34.3568819,59.4310662 L35.9958717,59.3617147 C36.0718853,59.3584382 36.1304246,59.2931276 36.1251823,59.2172232 L36.0577966,58.2286089 C36.053428,58.1649365 36.0044997,58.1151345 35.9412642,58.1063973 C34.6212915,57.9244451 33.5377693,56.8718307 33.3731823,55.4887317" id="Fill-41" fill="#FFFFFF"></path>
                            <path d="M40.1006853,42.2283795 L38.2786512,40.7332259 C38.2240437,40.6883386 38.2127945,40.6093761 38.2525488,40.5510553 L38.5965761,40.0468096 C38.6390608,39.984557 38.7239208,39.9686116 38.7860642,40.0110962 L40.750187,41.3531304 C40.8222689,41.4024956 40.8379959,41.5014444 40.7828423,41.5691577 C40.6648901,41.7139768 40.4684123,41.9632055 40.3205352,42.1912464 C40.2716068,42.2666048 40.1700369,42.2852805 40.1006853,42.2283795" id="Fill-43" fill="#FFFFFF"></path>
                            <path d="M36.5646307,34.9096956 C36.5802485,34.7768901 35.7894225,34.2443577 35.6450403,34.1466102 C35.5633474,34.1345966 33.9769993,36.3029515 33.6728355,36.706501 C33.475484,36.974187 31.7747877,39.1721392 31.7619003,39.2775317 C31.7479208,39.391443 32.5487945,39.9652587 32.7475659,39.9872109 C32.8358116,39.9990061 34.4975181,37.7306102 34.6961802,37.4634703 C34.9153747,37.1624737 36.5496683,35.0405352 36.5646307,34.9096956" id="Fill-45" fill="#FFFFFF"></path>
                            <path d="M37.5513556,39.0936683 C37.5025365,39.5401392 37.0946184,39.8606853 36.6458539,39.8081529 C36.193813,39.7531085 35.8755604,39.3451904 35.9298403,38.8978457 C35.9816082,38.4507195 36.3918198,38.1268969 36.836871,38.1818321 C37.2872737,38.2385147 37.6103317,38.6449038 37.5513556,39.0936683 M39.8950007,37.3239481 C39.5779495,37.1116341 39.2935536,36.8584737 39.004243,36.6416819 C38.7481338,36.4497911 37.3624137,35.3748969 37.1385229,35.3486853 C37.0383727,35.3349242 35.4068096,37.6099823 35.193185,37.8743918 C34.998127,38.1204532 33.3277925,40.3616546 33.322441,40.4269652 C33.3034375,40.5659959 34.900598,41.6846853 35.1331167,41.8702416 C35.4570485,42.1263509 35.7542225,42.3066648 36.0756423,42.5628833 C36.2123795,42.6712246 36.8984683,43.3368901 36.9442294,42.9420778 L36.9958881,42.5311017 C37.1367754,41.3606444 37.7356014,40.2693679 38.328202,39.6323167 C38.7322976,39.1984055 40.1076423,38.1694908 40.6767618,38.089873 C40.7908915,37.8677297 40.5747549,37.8190198 39.8950007,37.3239481" id="Fill-47" fill="#FFFFFF"></path>
                            <path d="M57.2148532,51.4082075 C57.5280819,51.4707877 57.8800819,51.499402 58.1998635,51.4266648 C58.4899386,51.3604805 58.7638498,51.2721256 59.0580751,51.234228 C59.1251331,51.2256 59.1857474,51.2792246 59.1884778,51.3468287 L59.2174198,52.0453679 C59.2198225,52.1051085 59.1759181,52.1548014 59.1167235,52.1626648 C57.7915085,52.3387195 56.7038362,53.3935181 56.5369556,54.7805488 C56.3468123,56.3776 57.4507577,57.8314703 59.0221433,58.0931495 C59.0993584,58.1060369 59.1546212,58.173641 59.1469761,58.2515113 L59.0547986,59.1957843 C59.0470444,59.2746375 58.9786758,59.3335044 58.8994949,59.3293543 L57.1672355,59.2376137 C57.086198,59.2333543 57.023727,59.1647672 57.0270034,59.0837297 L57.0599863,58.2760846 C57.061843,58.2308696 57.0420751,58.1879481 57.0072355,58.1590061 C56.0526962,57.365559 55.4890375,56.1377638 55.6022935,54.8165898 C55.6022935,54.8165898 55.6700068,54.347402 55.2636177,53.8830198 L55.1078771,53.7084942 C54.9673174,53.5394294 54.7800137,53.3532177 54.5388669,53.1580505 C54.4400273,53.0763577 54.2640819,52.9888765 54.256,52.8473338 C54.2442048,52.6414635 54.3930648,52.4102553 54.518116,52.2572451 C54.7408055,51.9846444 54.9592355,51.7056 55.1238225,51.3930266 C55.2048601,51.2394703 55.2583754,51.0792519 55.3231399,50.9193611 C55.3708669,50.8011904 55.4458976,50.6108287 55.598471,50.6061324 C55.7558498,50.601327 55.9143208,50.652658 56.0389352,50.7487672 C56.2072355,50.8784055 56.3438635,51.0464874 56.5207918,51.1653133 C56.7206553,51.2996478 56.9817884,51.3616819 57.2148532,51.4082075" id="Fill-49" fill="#FFFFFF"></path>
                            <path d="M62.4886389,55.4887317 C62.6828232,53.8885133 61.5718881,52.4330048 59.9966799,52.1774416 C59.9248164,52.1657556 59.8740314,52.1021925 59.8826594,52.0300014 L59.9606389,51.3763495 C59.9697038,51.299899 60.0416765,51.2438717 60.1175809,51.2555577 C62.198673,51.5774143 63.6649939,53.4929365 63.4119427,55.5987113 C63.2708369,56.7658922 62.6356423,57.7570184 61.7369119,58.3739741 C61.7025092,58.3976737 61.6808846,58.4353529 61.6793556,58.4771823 L61.6458266,59.3012096 C61.6428778,59.3760218 61.5796423,59.4341242 61.50483,59.4310662 L59.8659495,59.3617147 C59.7898266,59.3584382 59.7313966,59.2931276 59.7366389,59.2172232 L59.8040246,58.2286089 C59.808284,58.1649365 59.8572123,58.1151345 59.9204478,58.1063973 C61.2405297,57.9244451 62.3239427,56.8718307 62.4886389,55.4887317" id="Fill-51" fill="#FFFFFF"></path>
                            <path d="M55.7610375,42.2283795 L57.5831809,40.7332259 C57.6376792,40.6883386 57.6490375,40.6093761 57.6092833,40.5510553 L57.2651468,40.0468096 C57.2227713,39.984557 57.137802,39.9686116 57.0756587,40.0110962 L55.1116451,41.3531304 C55.0395631,41.4024956 55.0238362,41.5014444 55.0789898,41.5691577 C55.196942,41.7139768 55.3934198,41.9632055 55.5412969,42.1912464 C55.590116,42.2666048 55.691686,42.2852805 55.7610375,42.2283795" id="Fill-53" fill="#FFFFFF"></path>
                            <path d="M59.377398,34.9972532 C59.3617802,34.8643386 60.1526061,34.3318061 60.2970976,34.2340587 C60.3787904,34.2220451 61.9650294,36.3904 62.2693024,36.7939495 C62.4665447,37.0616355 64.167241,39.2595877 64.1801283,39.3649802 C64.1941078,39.4788915 63.3932341,40.0527072 63.1944628,40.0747686 C63.1062171,40.0864546 61.4446198,37.8181679 61.2458485,37.5509188 C61.0267631,37.2499222 59.3924696,35.1279836 59.377398,34.9972532" id="Fill-55" fill="#FFFFFF"></path>
                            <path d="M59.2159235,39.8081529 C58.7672683,39.8606853 58.359241,39.5401392 58.3104218,39.0936683 C58.2514457,38.6449038 58.574613,38.2385147 59.0250157,38.1818321 C59.4699577,38.1268969 59.8801693,38.4507195 59.9319372,38.8978457 C59.9863263,39.3451904 59.6679645,39.7531085 59.2159235,39.8081529 M60.6687017,37.8743918 C60.4550771,37.6099823 58.8234048,35.3349242 58.7232546,35.3486853 C58.4993638,35.3748969 57.1136437,36.4497911 56.8574253,36.6416819 C56.5682239,36.8584737 56.283828,37.1116341 55.9667768,37.3239481 C55.2870225,37.8190198 55.070886,37.8677297 55.1851249,38.089873 C55.7541352,38.1694908 57.1294799,39.1984055 57.5335754,39.6323167 C58.1260669,40.2693679 58.7251113,41.3606444 58.8658894,42.5311017 L58.9176573,42.9420778 C58.9633092,43.3368901 59.649398,42.6712246 59.7861352,42.5628833 C60.1075549,42.3066648 60.404729,42.1263509 60.7286608,41.8702416 C60.9611795,41.6846853 62.5583399,40.5659959 62.5394457,40.4269652 C62.533985,40.3616546 60.8636505,38.1204532 60.6687017,37.8743918" id="Fill-57" fill="#FFFFFF"></path>
                            <path d="M52.5533816,34.0118717 C52.5533816,34.4148751 52.8765488,34.7417556 53.2749652,34.7417556 C53.6736,34.7417556 53.9967672,34.4148751 53.9967672,34.0118717 C53.9967672,33.6089775 53.6736,33.2820969 53.2749652,33.2820969 C52.8765488,33.2820969 52.5533816,33.6089775 52.5533816,34.0118717" id="Fill-59" fill="#FFFFFF"></path>
                            <path d="M54.3484942,34.4407263 C54.1789925,34.8737638 53.7635386,35.1810949 53.2750198,35.1810949 C52.6364396,35.1810949 52.1188696,34.6576273 52.1188696,34.0118389 C52.1188696,33.9489311 52.127716,33.8883167 52.1372177,33.82803 C51.6863782,33.8333816 51.3615727,33.9553747 51.2742007,34.1931358 C51.1024055,34.6604669 51.9072109,35.3940642 53.0718799,35.831798 C54.2364396,36.269641 55.3197433,36.2458321 55.4914294,35.7787195 C55.6282758,35.4064055 55.1398662,34.8667741 54.3484942,34.4407263" id="Fill-61" fill="#FFFFFF"></path>
                            <path d="M49.1665474,53.0779959 C49.0301379,52.6262826 48.5306976,52.1883304 47.930998,52.1883304 C47.3312983,52.1883304 46.8317488,52.6262826 46.6954485,53.0779959 C46.6715304,52.9990334 46.6552573,52.9177775 46.6552573,52.8329174 C46.6552573,52.2621597 47.2263427,51.7995249 47.930998,51.7995249 C48.6354348,51.7995249 49.2065201,52.2621597 49.2065201,52.8329174 C49.2065201,52.9177775 49.1902471,52.9990334 49.1665474,53.0779959 M55.2784382,43.3344874 C55.0234212,42.7604532 54.6999263,42.2175454 54.3275031,41.7120983 C54.0282539,41.3058184 53.5587386,40.9731495 53.3279672,40.5224191 C53.2753256,40.4198662 53.2351345,40.3111973 53.2121993,40.1941188 C53.0986157,39.6165898 53.2128546,39.0005078 53.4208,38.4582553 C53.5963085,38.0007536 53.8477215,37.5727399 54.1414007,37.181641 C54.2150116,37.0836751 54.3641993,36.9238935 54.3343836,36.7887945 C54.3170184,36.7102689 54.2382744,36.6827468 54.1663017,36.6722621 C54.0296737,36.6524942 53.8893324,36.6552246 53.7519399,36.6350198 C53.7456055,36.6343645 53.7394894,36.6345829 53.7331549,36.6340369 C53.2514075,36.5820505 52.7820014,36.4071973 52.3442676,36.2061324 C52.1226703,36.104344 51.9075167,35.9871563 51.7043768,35.8520573 C51.615585,35.7928628 51.5288683,35.7302826 51.4457556,35.6633338 C51.375858,35.6068696 51.3073802,35.5156751 51.2310389,35.4711154 C51.1053324,35.3975044 50.9430389,35.4776683 50.9320082,35.6305693 C50.8368819,36.9550198 50.0796942,37.8451222 50.0787113,37.8464328 C49.8187795,38.1520164 49.5193119,38.4532314 49.1301788,38.5838526 C48.9197215,38.6546239 48.7105747,38.6509106 48.4918171,38.6492724 C48.2112437,38.6469788 47.9305611,38.6404259 47.6504246,38.6574635 C47.1592846,38.68717 46.670329,38.7552109 46.1905474,38.8646444 C45.377114,39.0503099 44.5920765,39.3558935 43.8702744,39.7745147 C43.3061788,40.1018321 42.7809638,40.4962075 42.3098102,40.9470471 C42.0016055,41.2418184 41.71437,41.5606171 41.4618648,41.9044259 C41.3927317,41.9985693 41.3237078,42.0942416 41.2645133,42.1949379 C39.7602949,44.2196751 40.0736328,46.6784328 40.2836532,47.6602758 C40.3270116,47.8630881 40.5553802,47.9528628 40.7335099,47.846815 C42.1946976,46.9762621 44.2833256,47.5260505 45.4546567,48.6497638 C45.6449092,48.8322621 45.83123,49.0350744 45.9680765,49.2622416 C46.8279263,50.6888082 46.1605133,51.6332997 46.1605133,51.6332997 C45.3133324,53.1163304 43.0305201,52.4387604 42.3244451,52.1852724 C42.238602,52.1544737 42.1607317,52.2411904 42.1941515,52.3260505 C42.5646089,53.2681392 42.968486,53.3242758 42.968486,53.3242758 C43.2422881,53.381286 43.5340014,53.359443 43.8099877,53.3310471 C43.9832027,53.3132451 44.1496464,53.2495727 44.3248273,53.2452041 C44.5510116,53.2395249 44.5351754,53.3334498 44.6176328,53.5097229 C44.8796396,54.0696683 45.2863563,54.4619686 45.4842539,54.6310334 C45.5356942,54.6750471 45.6144382,54.6447945 45.6262334,54.5780642 L45.7415645,53.9310744 L45.9065884,53.9546648 L46.040486,55.0354567 C46.0443085,55.0656 46.0633119,55.0915932 46.0909433,55.1044805 L46.4931823,55.2896 C46.5454962,55.3137365 46.6064382,55.2819549 46.616486,55.2251631 L46.7758307,54.3294908 L46.8945474,54.3034976 L47.1323085,55.5149106 C47.1391891,55.5499686 47.1664928,55.5773816 47.2014416,55.5841529 C47.2942744,55.6026102 47.4373461,55.6638799 47.5274485,55.6361392 C47.6283631,55.6051222 47.6282539,55.4832382 47.6447454,55.3973952 C47.6681174,55.2757297 47.6914894,55.1541734 47.7148614,55.0325078 C47.7460969,54.8693406 47.7774416,54.7062826 47.8087863,54.5432246 L47.9154894,54.5432246 L48.1959536,55.5865556 C48.2086225,55.6338457 48.2578785,55.6616956 48.3050594,55.6481529 L48.6840355,55.5390471 C48.7184382,55.5291085 48.7433392,55.499402 48.7471618,55.463798 L48.8556123,54.4238526 L48.9830662,54.4175181 L49.2218102,55.2930949 C49.2376464,55.3514157 49.3064519,55.3767536 49.3562539,55.3423509 L49.742329,55.0771768 C49.7636259,55.062542 49.777387,55.0393884 49.7800082,55.0138321 L49.8979604,53.8742826 L50.0316396,53.8225147 L50.3053324,54.5137365 C50.3278307,54.5705283 50.398602,54.5897502 50.4444724,54.5493406 C50.6744792,54.3470744 51.0257147,53.8506922 51.2423973,53.5300369 C51.3511754,53.3689447 51.5452505,53.2875795 51.7358307,53.3258048 C52.0196805,53.3824874 52.3370594,53.4509652 52.3370594,53.4509652 C53.1476532,53.579402 53.576759,52.8119481 53.7320628,52.359798 C53.7695235,52.2510198 53.6618375,52.1521802 53.5545884,52.1934635 C50.308172,53.4440846 49.5552437,51.3890949 49.5552437,51.3890949 C48.6811959,49.324385 51.6443085,47.8240983 51.6443085,47.8240983 C53.8430253,47.0141597 54.9766771,47.7145556 55.352486,48.0401256 C55.4239126,48.1020505 55.5392437,48.0687399 55.5686225,47.9789652 C56.0733051,46.4420915 55.9308887,44.8031017 55.2784382,43.3344874" id="Fill-63" fill="#FFFFFF"></path>
                            <path d="M14.8594785,43.0230717 L12.6483113,42.7728601 C12.2503317,42.7278635 12.0779904,42.8650375 12.0305911,43.2851877 L11.927929,44.1917816 C11.8779085,44.6339932 12.0151918,44.8062253 12.4131713,44.8513311 L21.0365706,45.827058 C21.4565024,45.8744573 21.6067823,45.7347713 21.6568027,45.2924505 L21.7593556,44.3859659 C21.8068642,43.9659249 21.6917515,43.7960956 21.2716014,43.748587 L19.1268369,43.5059113 L19.4871372,40.3219659 L21.9192464,40.5970785 C23.4229188,40.7672355 24.2614717,41.6682594 24.0337584,43.6804369 L23.7136491,46.5106348 C23.4859358,48.5227031 22.4696901,49.1914266 20.9662362,49.0214881 L11.767929,47.9807782 C10.2643659,47.8105119 9.42330102,46.9315495 9.65101433,44.9194812 L9.97123276,42.0892833 C10.1988369,40.0771058 11.2175945,39.3863208 12.7210485,39.5563686 L15.2196696,39.8391263 L14.8594785,43.0230717 Z" id="Fill-65" fill="#FFFFFF"></path>
                            <polygon id="Fill-67" fill="#FFFFFF" points="17.7277051 23.8124232 29.7551181 31.2704983 28.1016027 33.9368737 23.1470635 30.8645461 21.6460123 33.2851877 26.6006608 36.3575154 24.9472546 39.024 12.9199509 31.5660341 14.5732478 28.8995495 19.6603741 32.0538976 21.161316 29.6333652 16.0741898 26.4789078"></polygon>
                            <polygon id="Fill-69" fill="#FFFFFF" points="36.6332177 23.4784874 37.9383372 25.4166171 31.5335317 29.7295181 23.6284396 17.990542 29.8855863 13.7770266 31.1907058 15.7150471 27.5729584 18.1511973 29.4995113 21.0121939 32.5818867 18.9364532 33.8868969 20.8744737 30.8045215 22.9502143 32.8679208 26.0141324"></polygon>
                            <polygon id="Fill-71" fill="#FFFFFF" points="43.5335427 20.8838771 40.9413242 14.7454471 42.0967099 24.1542116 39.3139113 24.4959454 37.5887509 10.4490375 41.0342662 10.0259386 44.3298294 17.6921775 45.6724096 9.45638225 49.1178157 9.03317406 50.8428669 23.0799727 48.0600683 23.4218157 46.9019522 13.9909898 45.874785 20.596314"></polygon>
                            <polygon id="Fill-73" fill="#FFFFFF" points="60.1616382 11.3574334 56.281884 24.9676997 53.2430853 24.1015154 57.1228396 10.4912491"></polygon>
                            <path d="M68.3750553,21.2268887 L69.6596423,19.4097693 C69.8909597,19.0827795 69.8536082,18.8657693 69.5084887,18.6215645 L68.7635331,18.0948205 C68.3999563,17.8379468 68.1828369,17.8751891 67.9516287,18.2022881 L62.9417174,25.2887044 C62.6976218,25.6340423 62.7478608,25.8329229 63.1111099,26.0897966 L63.8561747,26.6165406 C64.2012942,26.860527 64.4056355,26.8414143 64.6497311,26.4961857 L65.8958744,24.7336737 L68.5123386,26.5835577 L67.0990962,28.5823017 C66.2255945,29.8178512 65.0320928,30.1185201 63.3785775,28.9494826 L61.0526253,27.3051413 C59.3991099,26.136213 59.3027823,24.9234894 60.176284,23.6879399 L65.520284,16.1290594 C66.3937857,14.8935099 67.5693761,14.5800628 69.2228915,15.7489911 L71.5487345,17.3932232 C73.2020314,18.56237 73.3168164,19.7878717 72.4433147,21.0235304 L70.9916287,23.0766635 L68.3750553,21.2268887 Z" id="Fill-75" fill="#FFFFFF"></path>
                            <path d="M73.9823509,34.362015 L78.5908969,30.370643 L72.8269652,32.3569365 L73.9823509,34.362015 Z M72.2105556,35.9222608 L70.5996341,33.1267932 L68.1379276,33.9804177 L66.5714567,31.2619468 L80.4331358,26.9718717 L82.4553611,30.4807317 L71.837914,40.4004041 L70.2380232,37.6242676 L72.2105556,35.9222608 Z" id="Fill-77" fill="#FFFFFF"></path>
                            <polygon id="Fill-79" fill="#FFFFFF" points="75.0596696 48.8650048 72.7387413 49.1341106 71.9056491 41.9502744 85.9641338 40.3198034 86.3280382 43.4587522 74.5905911 44.819899"></polygon>
                        </g>
                    </g>
                </g>
            </g>
        </g>
    </g>
</svg>